<svg width="103" height="41" viewBox="0 0 103 41" fill="none" xmlns="http://www.w3.org/2000/svg">
<g filter="url(#filter0_d_2133_579)">
<path d="M16.1263 28.4481C15.6012 28.9255 15.0762 29.2954 14.5511 29.5579C14.026 29.8205 13.5248 30.0114 13.0475 30.1308C12.5701 30.2501 12.1167 30.3217 11.687 30.3456C11.2813 30.3694 10.9233 30.3814 10.613 30.3814C9.53901 30.3814 8.52466 30.1785 7.56997 29.7727C6.63916 29.3431 5.81574 28.7703 5.09973 28.0543C4.40758 27.3144 3.84671 26.4672 3.4171 25.5125C3.01136 24.5339 2.80849 23.4957 2.80849 22.3978C2.80849 21.2999 3.01136 20.2736 3.4171 19.319C3.84671 18.3404 4.40758 17.4931 5.09973 16.7771C5.81574 16.0372 6.63916 15.4644 7.56997 15.0587C8.52466 14.6291 9.53901 14.4143 10.613 14.4143C10.9233 14.4143 11.2813 14.4262 11.687 14.4501C12.1167 14.4739 12.5701 14.5455 13.0475 14.6649C13.5248 14.7842 14.026 14.9752 14.5511 15.2377C15.0762 15.5002 15.6012 15.8702 16.1263 16.3475V8.57878H19.6348V29.9875H16.1263V28.4481ZM11.1858 27.0877C11.878 27.0877 12.5224 26.9803 13.1191 26.7655C13.7157 26.5268 14.2289 26.2046 14.6585 25.7989C15.112 25.3693 15.47 24.8681 15.7325 24.2953C15.9951 23.7224 16.1263 23.09 16.1263 22.3978C16.1263 21.7057 15.9951 21.0732 15.7325 20.5004C15.47 19.9276 15.112 19.4383 14.6585 19.0326C14.2289 18.603 13.7157 18.2807 13.1191 18.0659C12.5224 17.8273 11.878 17.7079 11.1858 17.7079C10.5176 17.7079 9.88508 17.8273 9.2884 18.0659C8.69172 18.2807 8.16665 18.603 7.71317 19.0326C7.28357 19.4383 6.93749 19.9276 6.67496 20.5004C6.43629 21.0732 6.31695 21.7057 6.31695 22.3978C6.31695 23.09 6.43629 23.7224 6.67496 24.2953C6.93749 24.8681 7.28357 25.3693 7.71317 25.7989C8.16665 26.2046 8.69172 26.5268 9.2884 26.7655C9.88508 26.9803 10.5176 27.0877 11.1858 27.0877Z" fill="white"/>
</g>
<g filter="url(#filter1_d_2133_579)">
<path d="M34.6673 23.9014H22.5667C22.7576 24.5459 23.0202 25.0709 23.3543 25.4767C23.6885 25.8824 24.0584 26.2046 24.4641 26.4433C24.8937 26.682 25.3353 26.849 25.7888 26.9445C26.2422 27.04 26.6838 27.0877 27.1134 27.0877C27.4953 27.0877 27.901 27.0519 28.3306 26.9803C28.7363 26.9326 29.154 26.849 29.5836 26.7297C30.0132 26.6104 30.4548 26.4433 30.9082 26.2285L32.8773 29.0209C32.3283 29.2835 31.7436 29.5102 31.123 29.7011C30.5502 29.8921 29.9178 30.0472 29.2256 30.1666C28.5573 30.3098 27.8413 30.3814 27.0776 30.3814C25.932 30.3814 24.8699 30.1904 23.8913 29.8085C22.9128 29.4267 22.0655 28.8897 21.3495 28.1975C20.6335 27.4815 20.0726 26.6342 19.6669 25.6557C19.2611 24.6771 19.0582 23.5912 19.0582 22.3978C19.0582 21.2999 19.2492 20.2736 19.6311 19.319C20.0129 18.3404 20.5499 17.4931 21.2421 16.7771C21.9342 16.0372 22.7576 15.4644 23.7123 15.0587C24.667 14.6291 25.7172 14.4143 26.8628 14.4143C27.8652 14.4143 28.8318 14.5933 29.7626 14.9513C30.6934 15.2854 31.5169 15.8105 32.2329 16.5265C32.9727 17.2187 33.5575 18.0898 33.9871 19.14C34.4406 20.1662 34.6673 21.3596 34.6673 22.72V23.9014ZM26.8628 17.7079C26.0274 17.7079 25.1921 17.9585 24.3567 18.4597C23.5214 18.961 22.9366 19.7724 22.6025 20.8942H31.123C30.8128 19.7724 30.228 18.961 29.3688 18.4597C28.5335 17.9585 27.6981 17.7079 26.8628 17.7079ZM25.1085 12.7675L27.543 8.25657H31.5527L28.5812 12.7675H25.1085Z" fill="white"/>
</g>
<g filter="url(#filter2_d_2133_579)">
<path d="M42.7619 29.9875H38.5374L32.5587 14.8081H36.3894L40.6496 26.0853L44.9099 14.8081H48.7406L42.7619 29.9875Z" fill="white"/>
</g>
<g filter="url(#filter3_d_2133_579)">
<path d="M93.597 31.7418C93.1913 32.7203 92.7259 33.496 92.2008 34.0688C91.6996 34.6655 91.1626 35.119 90.5898 35.4292C90.0408 35.7634 89.48 35.9782 88.9072 36.0737C88.3343 36.193 87.7735 36.2527 87.2245 36.2527C86.7233 36.2527 86.3295 36.2527 86.0431 36.2527C85.7567 36.2527 85.518 36.2407 85.3271 36.2169V33.0306C85.4703 33.0783 85.6254 33.1022 85.7925 33.1022C85.9834 33.1022 86.1863 33.1022 86.4011 33.1022C87.3081 33.1022 88.1076 32.9709 88.7998 32.7084C89.5158 32.4459 90.0289 31.7895 90.3392 30.7394L84.0741 14.8081H87.9047L92.165 26.0853L96.4253 14.8081H100.256L93.597 31.7418Z" fill="white"/>
</g>
<g filter="url(#filter4_d_2133_579)">
<path d="M63.7867 8.57878H67.2952V29.9875H63.7867V8.57878Z" fill="white"/>
</g>
<g filter="url(#filter5_d_2133_579)">
<path d="M69.5108 8.57878H73.0193V29.9875H69.5108V8.57878Z" fill="white"/>
</g>
<g filter="url(#filter6_d_2133_579)">
<path d="M57.9184 28.4481C57.3934 28.9255 56.8683 29.2954 56.3432 29.5579C55.8181 29.8205 55.3169 30.0114 54.8396 30.1308C54.3622 30.2501 53.9088 30.3217 53.4792 30.3456C53.0734 30.3694 52.7154 30.3814 52.4051 30.3814C51.3311 30.3814 50.3168 30.1785 49.3621 29.7727C48.4313 29.3431 47.6079 28.7703 46.8918 28.0543C46.1997 27.3144 45.6388 26.4672 45.2092 25.5125C44.8035 24.5339 44.6006 23.4957 44.6006 22.3978C44.6006 21.2999 44.8035 20.2736 45.2092 19.319C45.6388 18.3404 46.1997 17.4931 46.8918 16.7771C47.6079 16.0372 48.4313 15.4644 49.3621 15.0587C50.3168 14.6291 51.3311 14.4143 52.4051 14.4143C52.7154 14.4143 53.0734 14.4262 53.4792 14.4501C53.9088 14.4739 54.3622 14.5455 54.8396 14.6649C55.3169 14.7842 55.8181 14.9752 56.3432 15.2377C56.8683 15.5002 57.3934 15.8702 57.9184 16.3475V14.8081H61.4269V29.9875H57.9184V28.4481ZM52.9779 27.0877C53.6701 27.0877 54.3145 26.9803 54.9112 26.7655C55.5079 26.5268 56.021 26.2046 56.4506 25.7989C56.9041 25.3693 57.2621 24.8681 57.5246 24.2953C57.7872 23.7224 57.9184 23.09 57.9184 22.3978C57.9184 21.7057 57.7872 21.0732 57.5246 20.5004C57.2621 19.9276 56.9041 19.4383 56.4506 19.0326C56.021 18.603 55.5079 18.2807 54.9112 18.0659C54.3145 17.8273 53.6701 17.7079 52.9779 17.7079C52.3097 17.7079 51.6772 17.8273 51.0805 18.0659C50.4838 18.2807 49.9588 18.603 49.5053 19.0326C49.0757 19.4383 48.7296 19.9276 48.4671 20.5004C48.2284 21.0732 48.1091 21.7057 48.1091 22.3978C48.1091 23.09 48.2284 23.7224 48.4671 24.2953C48.7296 24.8681 49.0757 25.3693 49.5053 25.7989C49.9588 26.2046 50.4838 26.5268 51.0805 26.7655C51.6772 26.9803 52.3097 27.0877 52.9779 27.0877Z" fill="white"/>
</g>
<g filter="url(#filter7_d_2133_579)">
<path d="M87.2045 23.9014H75.1039C75.2949 24.5459 75.5574 25.0709 75.8915 25.4767C76.2257 25.8824 76.5956 26.2046 77.0014 26.4433C77.431 26.682 77.8725 26.849 78.326 26.9445C78.7795 27.04 79.221 27.0877 79.6506 27.0877C80.0325 27.0877 80.4382 27.0519 80.8678 26.9803C81.2736 26.9326 81.6912 26.849 82.1209 26.7297C82.5505 26.6104 82.992 26.4433 83.4455 26.2285L85.4145 29.0209C84.8656 29.2835 84.2808 29.5102 83.6603 29.7011C83.0875 29.8921 82.455 30.0472 81.7628 30.1666C81.0946 30.3098 80.3786 30.3814 79.6148 30.3814C78.4692 30.3814 77.4071 30.1904 76.4286 29.8085C75.45 29.4267 74.6027 28.8897 73.8867 28.1975C73.1707 27.4815 72.6098 26.6342 72.2041 25.6557C71.7983 24.6771 71.5955 23.5912 71.5955 22.3978C71.5955 21.2999 71.7864 20.2736 72.1683 19.319C72.5502 18.3404 73.0872 17.4931 73.7793 16.7771C74.4715 16.0372 75.2949 15.4644 76.2496 15.0587C77.2042 14.6291 78.2544 14.4143 79.4 14.4143C80.4024 14.4143 81.369 14.5933 82.2999 14.9513C83.2307 15.2854 84.0541 15.8105 84.7701 16.5265C85.51 17.2187 86.0947 18.0898 86.5243 19.14C86.9778 20.1662 87.2045 21.3596 87.2045 22.72V23.9014ZM79.4 17.7079C78.5647 17.7079 77.7293 17.9585 76.894 18.4597C76.0586 18.961 75.4739 19.7724 75.1397 20.8942H83.6603C83.35 19.7724 82.7653 18.961 81.9061 18.4597C81.0707 17.9585 80.2354 17.7079 79.4 17.7079Z" fill="white"/>
</g>
<defs>
<filter id="filter0_d_2133_579" x="0.727286" y="8.57886" width="20.9887" height="25.9649" filterUnits="userSpaceOnUse" color-interpolation-filters="sRGB">
<feFlood flood-opacity="0" result="BackgroundImageFix"/>
<feColorMatrix in="SourceAlpha" type="matrix" values="0 0 0 0 0 0 0 0 0 0 0 0 0 0 0 0 0 0 127 0" result="hardAlpha"/>
<feOffset dy="2.08119"/>
<feGaussianBlur stdDeviation="1.04059"/>
<feComposite in2="hardAlpha" operator="out"/>
<feColorMatrix type="matrix" values="0 0 0 0 0 0 0 0 0 0 0 0 0 0 0 0 0 0 0.15 0"/>
<feBlend mode="normal" in2="BackgroundImageFix" result="effect1_dropShadow_2133_579"/>
<feBlend mode="normal" in="SourceGraphic" in2="effect1_dropShadow_2133_579" result="shape"/>
</filter>
<filter id="filter1_d_2133_579" x="16.977" y="8.25659" width="19.7715" height="26.2871" filterUnits="userSpaceOnUse" color-interpolation-filters="sRGB">
<feFlood flood-opacity="0" result="BackgroundImageFix"/>
<feColorMatrix in="SourceAlpha" type="matrix" values="0 0 0 0 0 0 0 0 0 0 0 0 0 0 0 0 0 0 127 0" result="hardAlpha"/>
<feOffset dy="2.08119"/>
<feGaussianBlur stdDeviation="1.04059"/>
<feComposite in2="hardAlpha" operator="out"/>
<feColorMatrix type="matrix" values="0 0 0 0 0 0 0 0 0 0 0 0 0 0 0 0 0 0 0.15 0"/>
<feBlend mode="normal" in2="BackgroundImageFix" result="effect1_dropShadow_2133_579"/>
<feBlend mode="normal" in="SourceGraphic" in2="effect1_dropShadow_2133_579" result="shape"/>
</filter>
<filter id="filter2_d_2133_579" x="30.4775" y="14.8081" width="20.3443" height="19.3418" filterUnits="userSpaceOnUse" color-interpolation-filters="sRGB">
<feFlood flood-opacity="0" result="BackgroundImageFix"/>
<feColorMatrix in="SourceAlpha" type="matrix" values="0 0 0 0 0 0 0 0 0 0 0 0 0 0 0 0 0 0 127 0" result="hardAlpha"/>
<feOffset dy="2.08119"/>
<feGaussianBlur stdDeviation="1.04059"/>
<feComposite in2="hardAlpha" operator="out"/>
<feColorMatrix type="matrix" values="0 0 0 0 0 0 0 0 0 0 0 0 0 0 0 0 0 0 0.15 0"/>
<feBlend mode="normal" in2="BackgroundImageFix" result="effect1_dropShadow_2133_579"/>
<feBlend mode="normal" in="SourceGraphic" in2="effect1_dropShadow_2133_579" result="shape"/>
</filter>
<filter id="filter3_d_2133_579" x="81.9929" y="14.8081" width="20.3443" height="25.607" filterUnits="userSpaceOnUse" color-interpolation-filters="sRGB">
<feFlood flood-opacity="0" result="BackgroundImageFix"/>
<feColorMatrix in="SourceAlpha" type="matrix" values="0 0 0 0 0 0 0 0 0 0 0 0 0 0 0 0 0 0 127 0" result="hardAlpha"/>
<feOffset dy="2.08119"/>
<feGaussianBlur stdDeviation="1.04059"/>
<feComposite in2="hardAlpha" operator="out"/>
<feColorMatrix type="matrix" values="0 0 0 0 0 0 0 0 0 0 0 0 0 0 0 0 0 0 0.15 0"/>
<feBlend mode="normal" in2="BackgroundImageFix" result="effect1_dropShadow_2133_579"/>
<feBlend mode="normal" in="SourceGraphic" in2="effect1_dropShadow_2133_579" result="shape"/>
</filter>
<filter id="filter4_d_2133_579" x="61.7056" y="8.57886" width="7.67079" height="25.5711" filterUnits="userSpaceOnUse" color-interpolation-filters="sRGB">
<feFlood flood-opacity="0" result="BackgroundImageFix"/>
<feColorMatrix in="SourceAlpha" type="matrix" values="0 0 0 0 0 0 0 0 0 0 0 0 0 0 0 0 0 0 127 0" result="hardAlpha"/>
<feOffset dy="2.08119"/>
<feGaussianBlur stdDeviation="1.04059"/>
<feComposite in2="hardAlpha" operator="out"/>
<feColorMatrix type="matrix" values="0 0 0 0 0 0 0 0 0 0 0 0 0 0 0 0 0 0 0.15 0"/>
<feBlend mode="normal" in2="BackgroundImageFix" result="effect1_dropShadow_2133_579"/>
<feBlend mode="normal" in="SourceGraphic" in2="effect1_dropShadow_2133_579" result="shape"/>
</filter>
<filter id="filter5_d_2133_579" x="67.4297" y="8.57886" width="7.67079" height="25.5711" filterUnits="userSpaceOnUse" color-interpolation-filters="sRGB">
<feFlood flood-opacity="0" result="BackgroundImageFix"/>
<feColorMatrix in="SourceAlpha" type="matrix" values="0 0 0 0 0 0 0 0 0 0 0 0 0 0 0 0 0 0 127 0" result="hardAlpha"/>
<feOffset dy="2.08119"/>
<feGaussianBlur stdDeviation="1.04059"/>
<feComposite in2="hardAlpha" operator="out"/>
<feColorMatrix type="matrix" values="0 0 0 0 0 0 0 0 0 0 0 0 0 0 0 0 0 0 0.15 0"/>
<feBlend mode="normal" in2="BackgroundImageFix" result="effect1_dropShadow_2133_579"/>
<feBlend mode="normal" in="SourceGraphic" in2="effect1_dropShadow_2133_579" result="shape"/>
</filter>
<filter id="filter6_d_2133_579" x="42.5194" y="14.4143" width="20.9887" height="20.1294" filterUnits="userSpaceOnUse" color-interpolation-filters="sRGB">
<feFlood flood-opacity="0" result="BackgroundImageFix"/>
<feColorMatrix in="SourceAlpha" type="matrix" values="0 0 0 0 0 0 0 0 0 0 0 0 0 0 0 0 0 0 127 0" result="hardAlpha"/>
<feOffset dy="2.08119"/>
<feGaussianBlur stdDeviation="1.04059"/>
<feComposite in2="hardAlpha" operator="out"/>
<feColorMatrix type="matrix" values="0 0 0 0 0 0 0 0 0 0 0 0 0 0 0 0 0 0 0.15 0"/>
<feBlend mode="normal" in2="BackgroundImageFix" result="effect1_dropShadow_2133_579"/>
<feBlend mode="normal" in="SourceGraphic" in2="effect1_dropShadow_2133_579" result="shape"/>
</filter>
<filter id="filter7_d_2133_579" x="69.5143" y="14.4143" width="19.7715" height="20.1294" filterUnits="userSpaceOnUse" color-interpolation-filters="sRGB">
<feFlood flood-opacity="0" result="BackgroundImageFix"/>
<feColorMatrix in="SourceAlpha" type="matrix" values="0 0 0 0 0 0 0 0 0 0 0 0 0 0 0 0 0 0 127 0" result="hardAlpha"/>
<feOffset dy="2.08119"/>
<feGaussianBlur stdDeviation="1.04059"/>
<feComposite in2="hardAlpha" operator="out"/>
<feColorMatrix type="matrix" values="0 0 0 0 0 0 0 0 0 0 0 0 0 0 0 0 0 0 0.15 0"/>
<feBlend mode="normal" in2="BackgroundImageFix" result="effect1_dropShadow_2133_579"/>
<feBlend mode="normal" in="SourceGraphic" in2="effect1_dropShadow_2133_579" result="shape"/>
</filter>
</defs>
</svg>
