<svg width="8" height="122" viewBox="0 0 8 122" fill="none" xmlns="http://www.w3.org/2000/svg">
<path d="M4.5 0.791504C4.5 0.515362 4.27614 0.291504 4 0.291504C3.72386 0.291504 3.5 0.515361 3.5 0.791504L4.5 0.791504ZM3.64644 121.145C3.8417 121.34 4.15829 121.34 4.35355 121.145L7.53553 117.963C7.73079 117.768 7.73079 117.451 7.53553 117.256C7.34027 117.061 7.02368 117.061 6.82842 117.256L3.99999 120.084L1.17157 117.256C0.976306 117.061 0.659723 117.061 0.464461 117.256C0.269199 117.451 0.269199 117.768 0.464461 117.963L3.64644 121.145ZM3.5 0.791504L3.49999 120.792L4.49999 120.792L4.5 0.791504L3.5 0.791504Z" fill="white"/>
</svg>
