<svg width="60" height="60" viewBox="0 0 60 60" fill="none" xmlns="http://www.w3.org/2000/svg">
<path d="M42.1936 32.2655L32.2657 54.6032C30.2909 54.6032 28.397 53.8187 27.0007 52.4223C25.6043 51.0259 24.8198 49.132 24.8198 47.1573V37.2294H10.7719C10.0523 37.2375 9.3396 37.0891 8.6831 36.7945C8.0266 36.4999 7.44201 36.066 6.96983 35.523C6.49765 34.98 6.14918 34.3408 5.94855 33.6498C5.74792 32.9587 5.69994 32.2323 5.80792 31.5209L9.23304 9.18314C9.41254 7.99947 10.0138 6.92055 10.926 6.14519C11.8382 5.36982 12.9999 4.95025 14.197 4.96379H42.1936M42.1936 32.2655V4.96379M42.1936 32.2655H48.8204C50.2251 32.2903 51.5901 31.7985 52.6561 30.8834C53.7222 29.9684 54.4151 28.6938 54.6034 27.3015V9.92773C54.4151 8.53549 53.7222 7.26086 52.6561 6.34579C51.5901 5.43073 50.2251 4.93895 48.8204 4.96379H42.1936" stroke="#FF7A00" stroke-width="3" stroke-linecap="round" stroke-linejoin="round"/>
</svg>
