<svg width="60" height="60" viewBox="0 0 60 60" fill="none" xmlns="http://www.w3.org/2000/svg">
<path d="M42.1934 52.1214V47.1575C42.1934 44.5245 41.1475 41.9993 39.2856 40.1374C37.4238 38.2756 34.8986 37.2296 32.2656 37.2296H12.4098C9.77677 37.2296 7.25158 38.2756 5.38974 40.1374C3.5279 41.9993 2.48193 44.5245 2.48193 47.1575V52.1214" stroke="#FF7A00" stroke-width="3" stroke-linecap="round" stroke-linejoin="round"/>
<path d="M22.3378 27.3017C27.8208 27.3017 32.2657 22.8568 32.2657 17.3738C32.2657 11.8908 27.8208 7.44592 22.3378 7.44592C16.8548 7.44592 12.4099 11.8908 12.4099 17.3738C12.4099 22.8568 16.8548 27.3017 22.3378 27.3017Z" stroke="#FF7A00" stroke-width="3" stroke-linecap="round" stroke-linejoin="round"/>
<path d="M57.0853 52.1214V47.1575C57.0837 44.9578 56.3515 42.8209 55.0038 41.0824C53.6562 39.3439 51.7693 38.1022 49.6394 37.5522" stroke="#FF7A00" stroke-width="3" stroke-linecap="round" stroke-linejoin="round"/>
<path d="M39.7114 7.76868C41.8469 8.31546 43.7398 9.55743 45.0914 11.2988C46.4431 13.0402 47.1768 15.1819 47.1768 17.3863C47.1768 19.5907 46.4431 21.7324 45.0914 23.4738C43.7398 25.2152 41.8469 26.4572 39.7114 27.0039" stroke="#FF7A00" stroke-width="3" stroke-linecap="round" stroke-linejoin="round"/>
</svg>
