<svg width="33" height="32" viewBox="0 0 33 32" fill="none" xmlns="http://www.w3.org/2000/svg">
<path d="M13.7011 6.12014C14.0109 5.80856 14.3928 5.57833 14.813 5.44993C15.2331 5.32152 15.6785 5.29892 16.1095 5.38413C16.5405 5.46933 16.9438 5.65971 17.2835 5.93833C17.6232 6.21696 17.8888 6.57519 18.0567 6.9812C18.2245 7.3872 18.2895 7.82839 18.2458 8.26556C18.202 8.70272 18.051 9.12231 17.806 9.48702C17.5611 9.85173 17.2298 10.1503 16.8416 10.3561C16.4535 10.5619 16.0205 10.6687 15.5811 10.6668H3.58115M17.7011 25.8801C18.0109 26.1917 18.3928 26.4219 18.813 26.5504C19.2331 26.6788 19.6785 26.7014 20.1095 26.6162C20.5405 26.5309 20.9438 26.3406 21.2835 26.0619C21.6232 25.7833 21.8888 25.4251 22.0567 25.0191C22.2245 24.6131 22.2895 24.1719 22.2458 23.7347C22.202 23.2976 22.051 22.878 21.806 22.5133C21.5611 22.1485 21.2298 21.85 20.8416 21.6442C20.4535 21.4384 20.0205 21.3316 19.5811 21.3335H3.58115M24.5545 10.3068C24.9423 9.91999 25.4194 9.63469 25.9437 9.47616C26.468 9.31762 27.0233 9.29073 27.5605 9.39785C28.0976 9.50498 28.6001 9.74283 29.0235 10.0904C29.4468 10.4379 29.778 10.8844 29.9878 11.3904C30.1975 11.8964 30.2793 12.4463 30.226 12.9914C30.1727 13.5365 29.9858 14.0601 29.682 14.5159C29.3781 14.9716 28.9667 15.3455 28.484 15.6043C28.0013 15.8632 27.4622 15.9992 26.9145 16.0001H3.58115" stroke="white" stroke-width="1.4" stroke-linecap="round" stroke-linejoin="round"/>
</svg>
