<svg width="51" height="51" viewBox="0 0 51 51" fill="none" xmlns="http://www.w3.org/2000/svg">
<path d="M6.94287 19.9506H44.0761" stroke="url(#paint0_radial_2102_363)" stroke-width="1.5" stroke-linecap="round" stroke-linejoin="round"/>
<path d="M16.2456 26.0247C15.1065 26.0247 14.1831 26.9482 14.1831 28.0872C14.1831 29.2263 15.1065 30.1497 16.2456 30.1497H16.2649C17.404 30.1497 18.3274 29.2263 18.3274 28.0872C18.3274 26.9482 17.404 26.0247 16.2649 26.0247H16.2456ZM25.5096 26.0247C24.3706 26.0247 23.4471 26.9482 23.4471 28.0872C23.4471 29.2263 24.3706 30.1497 25.5096 30.1497H25.5288C26.6681 30.1497 27.5913 29.2262 27.5913 28.0872C27.5913 26.9482 26.6681 26.0247 25.5288 26.0247H25.5096ZM34.7542 26.0247C33.6152 26.0247 32.6917 26.9482 32.6917 28.0872C32.6917 29.2263 33.6152 30.1497 34.7542 30.1497H34.7736C35.9127 30.1497 36.8361 29.2263 36.8361 28.0872C36.8361 26.9482 35.9127 26.0247 34.7736 26.0247H34.7542ZM34.7542 34.1216C33.6152 34.1216 32.6917 35.045 32.6917 36.1841C32.6917 37.3232 33.6152 38.2466 34.7542 38.2466H34.7736C35.9127 38.2466 36.8361 37.3232 36.8361 36.1841C36.8361 35.045 35.9127 34.1216 34.7736 34.1216H34.7542ZM25.5096 34.1216C24.3706 34.1216 23.4471 35.045 23.4471 36.1841C23.4471 37.3232 24.3706 38.2466 25.5096 38.2466H25.5288C26.6681 38.2466 27.5913 37.3231 27.5913 36.1841C27.5913 35.0451 26.6681 34.1216 25.5288 34.1216H25.5096ZM16.2456 34.1216C15.1065 34.1216 14.1831 35.045 14.1831 36.1841C14.1831 37.3232 15.1065 38.2466 16.2456 38.2466H16.2649C17.404 38.2466 18.3274 37.3232 18.3274 36.1841C18.3274 35.045 17.404 34.1216 16.2649 34.1216H16.2456Z" stroke="url(#paint1_radial_2102_363)"/>
<path d="M33.9246 4.52515V11.3809" stroke="#252525" stroke-width="1.5" stroke-linecap="round" stroke-linejoin="round"/>
<path d="M17.0945 4.52515V11.3809" stroke="#252525" stroke-width="1.5" stroke-linecap="round" stroke-linejoin="round"/>
<path fill-rule="evenodd" clip-rule="evenodd" d="M34.3298 7.81494H16.6895C10.5714 7.81494 6.75 11.2232 6.75 17.4879V36.3414C6.75 42.7045 10.5714 46.1916 16.6895 46.1916H34.3104C40.4479 46.1916 44.25 42.7637 44.25 36.4989V17.4879C44.2692 11.2232 40.4671 7.81494 34.3298 7.81494Z" stroke="#252525" stroke-width="1.5" stroke-linecap="round" stroke-linejoin="round"/>
<defs>
<radialGradient id="paint0_radial_2102_363" cx="0" cy="0" r="1" gradientUnits="userSpaceOnUse" gradientTransform="translate(8.14072 20.2102) rotate(0.760676) scale(35.4894 21.967)">
<stop stop-color="#293EFF"/>
<stop offset="0.470486" stop-color="#8F00FF"/>
<stop offset="1" stop-color="#FF7A00"/>
<stop offset="1" stop-color="#0047FF"/>
</radialGradient>
<radialGradient id="paint1_radial_2102_363" cx="0" cy="0" r="1" gradientUnits="userSpaceOnUse" gradientTransform="translate(15.3816 29.4381) rotate(14.3332) scale(21.3574 238.859)">
<stop stop-color="#293EFF"/>
<stop offset="0.470486" stop-color="#8F00FF"/>
<stop offset="1" stop-color="#FF7A00"/>
<stop offset="1" stop-color="#0047FF"/>
</radialGradient>
</defs>
</svg>
