<svg width="50" height="51" viewBox="0 0 50 51" fill="none" xmlns="http://www.w3.org/2000/svg">
<path d="M5.8418 32.6024C5.8418 32.6024 6.13763 36.2232 6.20638 37.3649C6.29805 38.8962 6.88971 40.6066 7.87721 41.7941C9.27096 43.4774 10.9126 44.0712 13.1043 44.0753C15.6814 44.0795 34.421 44.0795 36.9981 44.0753C39.1898 44.0712 40.8314 43.4774 42.2252 41.7941C43.2127 40.6066 43.8043 38.8962 43.8981 37.3649C43.9648 36.2232 44.2606 32.6024 44.2606 32.6024" stroke="#252525" stroke-width="1.5" stroke-linecap="round" stroke-linejoin="round"/>
<path d="M17.7 11.4616V10.6887C17.7 8.14702 19.7583 6.08868 22.3 6.08868H27.6792C30.2188 6.08868 32.2792 8.14702 32.2792 10.6887L32.2813 11.4616" stroke="url(#paint0_radial_2100_341)" stroke-width="1.5" stroke-linecap="round" stroke-linejoin="round"/>
<path d="M24.9895 35.105V32.4091" stroke="#252525" stroke-width="1.5" stroke-linecap="round" stroke-linejoin="round"/>
<path fill-rule="evenodd" clip-rule="evenodd" d="M5.729 17.8357V25.0587C9.72484 27.6941 14.5123 29.5399 19.7665 30.2712C20.3957 27.9774 22.4645 26.2962 24.979 26.2962C27.454 26.2962 29.5645 27.9774 30.152 30.292C35.427 29.5608 40.2332 27.7149 44.2499 25.0587V17.8357C44.2499 14.3065 41.4103 11.4648 37.8811 11.4648H12.1186C8.58942 11.4648 5.729 14.3065 5.729 17.8357Z" stroke="url(#paint1_radial_2100_341)" stroke-width="1.5" stroke-linecap="round" stroke-linejoin="round"/>
<defs>
<radialGradient id="paint0_radial_2100_341" cx="0" cy="0" r="1" gradientUnits="userSpaceOnUse" gradientTransform="translate(18.1703 7.48358) rotate(10.2965) scale(14.1626 116.137)">
<stop stop-color="#293EFF"/>
<stop offset="0.470486" stop-color="#8F00FF"/>
<stop offset="1" stop-color="#FF7A00"/>
<stop offset="1" stop-color="#0047FF"/>
</radialGradient>
<radialGradient id="paint1_radial_2100_341" cx="0" cy="0" r="1" gradientUnits="userSpaceOnUse" gradientTransform="translate(6.97161 16.3527) rotate(13.548) scale(37.866 402.105)">
<stop stop-color="#293EFF"/>
<stop offset="0.470486" stop-color="#8F00FF"/>
<stop offset="1" stop-color="#FF7A00"/>
<stop offset="1" stop-color="#0047FF"/>
</radialGradient>
</defs>
</svg>
