<svg width="51" height="51" viewBox="0 0 51 51" fill="none" xmlns="http://www.w3.org/2000/svg">
<path d="M12.1668 16.1918C11.2477 16.1918 10.5001 15.4443 10.5001 14.5251C10.5001 14.0651 10.1268 13.6918 9.6668 13.6918C9.20684 13.6918 8.8335 14.0651 8.8335 14.5251C8.8335 16.0734 9.9002 17.3676 11.3335 17.7401V17.8585C11.3335 18.3185 11.7068 18.6918 12.1668 18.6918C12.6268 18.6918 13.0001 18.3185 13.0001 17.8585V17.7401C14.4334 17.3677 15.5001 16.0734 15.5001 14.5251C15.5001 12.6867 14.0051 11.1918 12.1668 11.1918C11.2477 11.1918 10.5001 10.4443 10.5001 9.5251C10.5001 8.60596 11.2476 7.8584 12.1668 7.8584C13.086 7.8584 13.8335 8.60586 13.8335 9.5251C13.8335 9.98506 14.2068 10.3584 14.6668 10.3584C15.1268 10.3584 15.5001 9.98506 15.5001 9.5251C15.5001 7.97676 14.4334 6.68262 13.0001 6.31006V6.1917C13.0001 5.73174 12.6268 5.3584 12.1668 5.3584C11.7068 5.3584 11.3335 5.73174 11.3335 6.1917V6.31006C9.9002 6.68252 8.8335 7.97676 8.8335 9.5251C8.8335 11.3635 10.3285 12.8584 12.1668 12.8584C13.0859 12.8584 13.8335 13.6059 13.8335 14.5251C13.8334 15.4443 13.0859 16.1918 12.1668 16.1918Z" fill="url(#paint0_radial_2104_392)"/>
<path d="M12.1667 23.6918C18.6 23.6918 23.8334 18.4585 23.8334 12.0251C23.8334 5.59169 18.6 0.35849 12.1667 0.35849C5.7334 0.35849 0.5 5.59179 0.5 12.0252C0.5 18.4586 5.7333 23.6918 12.1667 23.6918ZM12.1667 2.02519C17.6809 2.02519 22.1667 6.51103 22.1667 12.0252C22.1667 17.5394 17.6809 22.0252 12.1667 22.0252C6.65254 22.0252 2.1667 17.5394 2.1667 12.0252C2.1667 6.51103 6.65254 2.02519 12.1667 2.02519Z" fill="url(#paint1_radial_2104_392)"/>
<path d="M47.1667 18.6918C45.3283 18.6918 43.8334 20.1868 43.8334 22.0251C43.8334 22.6418 44.0126 23.2117 44.3059 23.7076L35.5158 32.4977C35.02 32.2043 34.45 32.0252 33.8333 32.0252C33.2191 32.0252 32.65 32.2035 32.155 32.4952L28.3633 28.7035C28.655 28.2085 28.8333 27.6394 28.8333 27.0252C28.8333 25.1868 27.3383 23.6919 25.5 23.6919C23.6616 23.6919 22.1667 25.1869 22.1667 27.0252C22.1667 27.4186 22.2476 27.7902 22.3733 28.1402L6 44.5135C5.41582 44.0085 4.66416 43.6918 3.8333 43.6918C1.99502 43.6918 0.5 45.1868 0.5 47.0252C0.5 48.8636 1.99502 50.3585 3.8333 50.3585C5.67168 50.3585 7.1666 48.8635 7.1666 47.0252C7.1666 46.6318 7.08574 46.2602 6.95996 45.9102L23.3333 29.5368C23.9175 30.0418 24.6691 30.3585 25.5 30.3585C26.1184 30.3585 26.69 30.1785 27.1866 29.8844L30.9741 33.6719C30.68 34.1686 30.5 34.7402 30.5 35.3585C30.5 37.1969 31.995 38.6918 33.8333 38.6918C35.6717 38.6918 37.1666 37.1968 37.1666 35.3585C37.1666 34.7418 36.9874 34.1719 36.6941 33.676L45.4842 24.8859C45.98 25.1793 46.55 25.3584 47.1667 25.3584C49.005 25.3585 50.5 23.8635 50.5 22.0252C50.5 20.1869 49.005 18.6918 47.1667 18.6918ZM3.8333 48.6918C2.91416 48.6918 2.1666 47.9443 2.1666 47.0251C2.1666 46.1059 2.91416 45.3585 3.8333 45.3585C4.75244 45.3585 5.5 46.106 5.5 47.0252C5.5 47.9444 4.75254 48.6918 3.8333 48.6918ZM25.5 28.6918C24.5809 28.6918 23.8333 27.9443 23.8333 27.0251C23.8333 26.106 24.5808 25.3584 25.5 25.3584C26.4191 25.3584 27.1667 26.1059 27.1667 27.0251C27.1667 27.9443 26.4191 28.6918 25.5 28.6918ZM33.8333 37.0252C32.9142 37.0252 32.1666 36.2777 32.1666 35.3585C32.1666 34.4393 32.9141 33.6918 33.8333 33.6918C34.7524 33.6918 35.5 34.4393 35.5 35.3585C35.5 36.2777 34.7525 37.0252 33.8333 37.0252ZM47.1667 23.6918C46.7125 23.6918 46.3 23.5076 45.9992 23.2118C45.9959 23.2085 45.995 23.2035 45.9917 23.2002C45.9884 23.1969 45.9834 23.196 45.98 23.1927C45.6842 22.8918 45.5 22.4793 45.5 22.0252C45.5 21.1061 46.2475 20.3585 47.1667 20.3585C48.0859 20.3585 48.8334 21.106 48.8334 22.0252C48.8333 22.9443 48.0858 23.6918 47.1667 23.6918Z" fill="#252525"/>
<defs>
<radialGradient id="paint0_radial_2104_392" cx="0" cy="0" r="1" gradientUnits="userSpaceOnUse" gradientTransform="translate(9.04855 8.81995) rotate(44.5978) scale(8.94723 208.575)">
<stop stop-color="#293EFF"/>
<stop offset="0.470486" stop-color="#8F00FF"/>
<stop offset="1" stop-color="#FF7A00"/>
<stop offset="1" stop-color="#0047FF"/>
</radialGradient>
<radialGradient id="paint1_radial_2104_392" cx="0" cy="0" r="1" gradientUnits="userSpaceOnUse" gradientTransform="translate(1.25269 6.41617) rotate(26.2442) scale(24.8612 459.768)">
<stop stop-color="#293EFF"/>
<stop offset="0.470486" stop-color="#8F00FF"/>
<stop offset="1" stop-color="#FF7A00"/>
<stop offset="1" stop-color="#0047FF"/>
</radialGradient>
</defs>
</svg>
