<svg width="50" height="51" viewBox="0 0 50 51" fill="none" xmlns="http://www.w3.org/2000/svg">
<path d="M24.9999 29.5252C27.3011 29.5252 29.1666 27.6597 29.1666 25.3586C29.1666 23.0574 27.3011 21.1919 24.9999 21.1919C22.6987 21.1919 20.8333 23.0574 20.8333 25.3586C20.8333 27.6597 22.6987 29.5252 24.9999 29.5252Z" stroke="url(#paint0_radial_2127_179)" stroke-width="2" stroke-linecap="round" stroke-linejoin="round"/>
<path d="M33.8334 16.5252C34.9956 17.6861 35.9176 19.0647 36.5466 20.5822C37.1757 22.0997 37.4994 23.7263 37.4994 25.369C37.4994 27.0117 37.1757 28.6383 36.5466 30.1557C35.9176 31.6732 34.9956 33.0518 33.8334 34.2127M16.1667 34.1919C15.0045 33.031 14.0825 31.6524 13.4534 30.1349C12.8244 28.6174 12.5006 26.9908 12.5006 25.3481C12.5006 23.7055 12.8244 22.0789 13.4534 20.5614C14.0825 19.0439 15.0045 17.6653 16.1667 16.5044M39.7292 10.6294C43.6348 14.5362 45.8289 19.8343 45.8289 25.3586C45.8289 30.8828 43.6348 36.1809 39.7292 40.0877M10.2709 40.0877C6.36521 36.1809 4.17114 30.8828 4.17114 25.3586C4.17114 19.8343 6.36521 14.5362 10.2709 10.6294" stroke="white" stroke-width="2" stroke-linecap="round" stroke-linejoin="round"/>
<defs>
<radialGradient id="paint0_radial_2127_179" cx="0" cy="0" r="1" gradientUnits="userSpaceOnUse" gradientTransform="translate(21.1021 23.3554) rotate(26.2443) scale(8.87898 164.203)">
<stop stop-color="#293EFF"/>
<stop offset="0.470486" stop-color="#8F00FF"/>
<stop offset="1" stop-color="#FF7A00"/>
<stop offset="1" stop-color="#0047FF"/>
</radialGradient>
</defs>
</svg>
