<svg width="51" height="46" viewBox="0 0 51 46" fill="none" xmlns="http://www.w3.org/2000/svg">
<path d="M41.5007 15.1531C40.982 14.9745 40.4445 14.8056 39.8911 14.6458C39.9821 14.2746 40.0655 13.9082 40.1398 13.548C41.3582 7.63377 40.5615 2.86919 37.8413 1.30049C35.2329 -0.203691 30.9671 1.36466 26.6588 5.11402C26.2445 5.47456 25.829 5.85627 25.4138 6.25633C25.1371 5.99164 24.8608 5.73586 24.5853 5.4912C20.0701 1.48213 15.5443 -0.20734 12.8267 1.3659C10.2208 2.87444 9.44907 7.3536 10.5458 12.9586C10.6517 13.5 10.7755 14.0528 10.9155 14.615C10.275 14.7968 9.65661 14.9906 9.06494 15.1968C3.77135 17.0424 0.390625 19.9349 0.390625 22.9352C0.390625 26.0338 4.01984 29.1419 9.53353 31.0264C9.96864 31.1752 10.4201 31.3158 10.8854 31.4493C10.7344 32.0572 10.603 32.653 10.4928 33.2341C9.44702 38.7418 10.2637 43.1151 12.8626 44.6142C15.5471 46.1622 20.0524 44.571 24.4395 40.7362C24.7862 40.433 25.1342 40.1116 25.4828 39.7746C25.9347 40.2098 26.3858 40.6215 26.8346 41.0078C31.0839 44.6645 35.2809 46.1411 37.8774 44.6379C40.5592 43.0854 41.4308 38.3874 40.2993 32.6715C40.2128 32.235 40.1123 31.789 39.9993 31.3351C40.3157 31.2416 40.6263 31.145 40.9292 31.0446C46.6612 29.1454 50.3906 26.0752 50.3906 22.9352C50.3906 19.924 46.9009 17.0121 41.5007 15.1531ZM40.2574 29.0171C39.984 29.1076 39.7035 29.1951 39.4176 29.2799C38.7848 27.2766 37.9308 25.1464 36.8857 22.9456C37.883 20.7971 38.704 18.6942 39.3191 16.7039C39.8306 16.8519 40.327 17.008 40.8054 17.1727C45.4323 18.7655 48.2546 21.1205 48.2546 22.9352C48.2546 24.868 45.2066 27.3772 40.2574 29.0171ZM38.2039 33.0863C38.7042 35.6138 38.7757 37.899 38.4442 39.6854C38.1465 41.2906 37.5476 42.3608 36.8071 42.7894C35.2314 43.7015 31.8617 42.5159 28.2276 39.3886C27.811 39.0302 27.3913 38.6474 26.9704 38.2422C28.3792 36.7014 29.7873 34.9101 31.1615 32.9207C33.5787 32.7062 35.8623 32.3556 37.9332 31.8768C38.0352 32.2883 38.1258 32.6918 38.2039 33.0863ZM17.4368 42.6318C15.8972 43.1755 14.6711 43.1911 13.9299 42.7637C12.3528 41.854 11.6971 38.3426 12.5915 33.6324C12.6939 33.093 12.8158 32.5389 12.9564 31.9725C15.0046 32.4254 17.2715 32.7513 19.6944 32.9478C21.0779 34.8944 22.5266 36.6838 23.9866 38.2505C23.6676 38.5585 23.3499 38.8516 23.0339 39.1279C21.094 40.8236 19.15 42.0267 17.4368 42.6318ZM10.2243 29.0053C7.78629 28.172 5.77286 27.0889 4.39275 25.9071C3.15263 24.8451 2.52652 23.7907 2.52652 22.9352C2.52652 21.1145 5.24091 18.7922 9.76804 17.2138C10.3173 17.0223 10.8924 16.8418 11.4891 16.6723C12.1148 18.7075 12.9355 20.8354 13.926 22.9871C12.9227 25.1708 12.0903 27.3326 11.4585 29.3917C11.0331 29.2694 10.6209 29.1407 10.2243 29.0053ZM12.642 12.5484C11.7024 7.74617 12.3264 4.12355 13.8968 3.21451C15.5695 2.2461 19.2684 3.62684 23.167 7.08847C23.4162 7.30972 23.6664 7.5413 23.9172 7.78088C22.4645 9.34078 21.029 11.1167 19.6578 13.0519C17.3063 13.2698 15.0553 13.62 12.9857 14.0888C12.8556 13.5654 12.7403 13.0512 12.642 12.5484ZM34.2097 17.874C33.715 17.0195 33.2071 16.1851 32.6893 15.3735C34.2846 15.5752 35.8131 15.8429 37.2485 16.1705C36.8175 17.5516 36.2804 18.9956 35.6482 20.4759C35.1946 19.6149 34.7149 18.7467 34.2097 17.874ZM25.4145 9.3074C26.3997 10.3748 27.3863 11.5665 28.3568 12.8595C27.3789 12.8133 26.3888 12.7892 25.3906 12.7892C24.4018 12.7892 23.4191 12.8127 22.4472 12.8581C23.4187 11.5772 24.4139 10.3871 25.4145 9.3074ZM16.5629 17.8888C16.0687 18.7458 15.5979 19.6093 15.1514 20.4743C14.5294 18.9992 13.9973 17.5486 13.5626 16.1479C14.9892 15.8286 16.5105 15.5676 18.0956 15.3698C17.5705 16.1888 17.0584 17.0293 16.5629 17.8886V17.8888ZM18.1413 30.6529C16.5035 30.4702 14.9594 30.2226 13.5332 29.9122C13.9748 28.4865 14.5186 27.0049 15.1538 25.498C15.6014 26.3624 16.0741 27.2263 16.5713 28.0851H16.5714C17.0779 28.9601 17.6026 29.8171 18.1413 30.6529ZM25.4736 36.7135C24.4612 35.6212 23.4514 34.413 22.4652 33.1133C23.4226 33.1509 24.3986 33.1701 25.3906 33.1701C26.4098 33.1701 27.4172 33.1471 28.4089 33.103C27.4352 34.426 26.4521 35.6362 25.4736 36.7135ZM35.6685 25.4212C36.3368 26.9444 36.9002 28.4182 37.3475 29.8196C35.8978 30.1503 34.3326 30.4167 32.6834 30.6146C33.2025 29.7921 33.7148 28.9434 34.2183 28.0704C34.7276 27.1872 35.2113 26.3026 35.6685 25.4212ZM32.3681 27.0033C31.5865 28.3585 30.7841 29.6522 29.9695 30.8734C28.4858 30.9795 26.9529 31.0341 25.3906 31.0341C23.8347 31.0341 22.3211 30.9858 20.8637 30.8912C20.0162 29.654 19.1964 28.3565 18.4198 27.015H18.4199C17.6454 25.6771 16.9325 24.328 16.2865 22.9864C16.9323 21.6417 17.6433 20.2911 18.4134 18.9556L18.4133 18.9559C19.1854 17.6169 19.9981 16.3257 20.8377 15.0963C22.3247 14.9839 23.8495 14.9252 25.3905 14.9252H25.3906C26.9386 14.9252 28.4654 14.9843 29.9519 15.0977C30.7787 16.3181 31.5859 17.6052 32.3611 18.9443C33.145 20.2986 33.8652 21.6402 34.5165 22.9561C33.8672 24.2945 33.1486 25.6497 32.3681 27.0033ZM36.7744 3.15096C38.4487 4.11651 39.0998 8.01059 38.0478 13.1169C37.9807 13.4428 37.9052 13.7746 37.8231 14.111C35.7487 13.6323 33.4961 13.2761 31.1378 13.0549C29.7639 11.0984 28.3402 9.31977 26.9111 7.77991C27.2953 7.41029 27.679 7.05785 28.0611 6.72526C31.7524 3.51283 35.2024 2.2445 36.7744 3.15096ZM25.3906 18.4703C27.8564 18.4703 29.8555 20.4693 29.8555 22.9352C29.8555 25.401 27.8564 27.4 25.3906 27.4C22.9248 27.4 20.9258 25.401 20.9258 22.9352C20.9258 20.4693 22.9248 18.4703 25.3906 18.4703Z" fill="#00D8FF"/>
</svg>
