<svg width="51" height="51" viewBox="0 0 51 51" fill="none" xmlns="http://www.w3.org/2000/svg">
<g clip-path="url(#clip0_2103_369)">
<path d="M46.5 33.0572C48.5711 33.0572 50.25 34.7362 50.25 36.8072V40.3646C50.25 42.4357 48.5711 44.1146 46.5 44.1146H4.5C2.42893 44.1146 0.750001 42.4357 0.750001 40.3646L0.750002 36.8454C0.750003 34.7792 2.42144 33.1022 4.48768 33.0954L15.1189 33.0605C15.8076 33.0583 16.3648 32.4993 16.3648 31.8105V27.3339C16.3648 25.8152 17.5959 24.584 19.1147 24.5839L31.875 24.5837C33.3938 24.5837 34.625 25.8149 34.625 27.3337V31.8072C34.625 32.4976 35.1846 33.0572 35.875 33.0572H46.5ZM46.4508 42.5654C47.6935 42.5654 48.7008 41.5581 48.7008 40.3154V36.8564C48.7008 35.6138 47.6935 34.6064 46.4508 34.6064H35.8361C34.3173 34.6064 33.0861 33.3752 33.0861 31.8564V27.3831C33.0861 26.6927 32.5264 26.1331 31.8361 26.1331H19.1742C18.4838 26.1331 17.9242 26.6927 17.9242 27.3831V31.8564C17.9242 33.3752 16.693 34.6064 15.1742 34.6064H4.54918C3.30654 34.6064 2.29918 35.6138 2.29918 36.8564V40.3154C2.29918 41.5581 3.30654 42.5654 4.54918 42.5654H46.4508Z" fill="#252525" stroke="#111111" stroke-width="0.5"/>
<path d="M18.7819 12.4408L18.7819 12.4408L18.7806 12.4399C18.5114 12.2476 18.3955 11.8916 18.503 11.5766L18.5031 11.5766L18.5048 11.5714C18.6044 11.2572 18.906 11.0388 19.2398 11.0388H23.2664H23.4465L23.5036 10.8681L24.753 7.12986C24.7531 7.12962 24.7532 7.12939 24.7533 7.12915C24.8623 6.81091 25.1562 6.60236 25.4898 6.60236C25.8235 6.60236 26.1174 6.81093 26.2264 7.1292C26.2264 7.12942 26.2265 7.12964 26.2266 7.12986L27.4761 10.8681L27.5331 11.0388H27.7132H31.7398C32.0736 11.0388 32.3753 11.2572 32.4749 11.5714C32.5762 11.8909 32.4672 12.2399 32.1964 12.4418L28.9703 14.7769L28.8241 14.8827L28.8785 15.0547L30.0567 18.7842L30.0568 18.7845C30.1575 19.102 30.0406 19.4518 29.7782 19.6448L29.7782 19.6448L29.7744 19.6476C29.6502 19.7426 29.4906 19.7909 29.3218 19.7909C29.1686 19.7909 29.0126 19.7454 28.8686 19.65L25.6335 17.3773L25.4898 17.2763L25.3461 17.3773L22.1084 19.6519L22.1084 19.6519L22.1068 19.653C21.8391 19.8442 21.4744 19.8398 21.1986 19.6428C20.9321 19.4524 20.8209 19.1058 20.9228 18.7845L20.9229 18.7842L22.1011 15.0547L22.1555 14.8827L22.0093 14.7769L18.7819 12.4408ZM25.7473 10.5351L25.5103 9.82883L25.2733 10.5351L24.7614 12.0605C24.7613 12.0607 24.7613 12.0609 24.7612 12.0611C24.6522 12.3794 24.3583 12.588 24.0246 12.588H22.4263H21.6562L22.2794 13.0403L23.5499 13.9625L23.5499 13.9625L23.5515 13.9636C23.8217 14.1566 23.9379 14.5048 23.8377 14.8214C23.8377 14.8216 23.8376 14.8217 23.8376 14.8219L23.346 16.3581L23.1194 17.0662L23.7278 16.6389L25.07 15.6963L25.07 15.6964L25.0763 15.6917C25.1926 15.6045 25.3435 15.5573 25.5001 15.5573C25.6532 15.5573 25.8092 15.6028 25.9532 15.6981L27.2928 16.6389L27.9012 17.0662L27.6746 16.3581L27.183 14.8219C27.183 14.8218 27.183 14.8218 27.183 14.8217C27.0826 14.505 27.1988 14.1567 27.4691 13.9636L27.4707 13.9625L28.7412 13.0403L29.3644 12.588H28.5943H26.996C26.6623 12.588 26.3683 12.3794 26.2594 12.061C26.2593 12.0609 26.2592 12.0607 26.2592 12.0605L25.7473 10.5351Z" fill="url(#paint0_radial_2103_369)" stroke="white" stroke-width="0.5"/>
</g>
<defs>
<radialGradient id="paint0_radial_2103_369" cx="0" cy="0" r="1" gradientUnits="userSpaceOnUse" gradientTransform="translate(18.6825 9.90679) rotate(24.889) scale(15.3272 272.846)">
<stop stop-color="#293EFF"/>
<stop offset="0.470486" stop-color="#8F00FF"/>
<stop offset="1" stop-color="#FF7A00"/>
<stop offset="1" stop-color="#0047FF"/>
</radialGradient>
<clipPath id="clip0_2103_369">
<rect width="50" height="50" fill="white" transform="translate(0.5 0.35849)"/>
</clipPath>
</defs>
</svg>
